<svg width="27" height="32" viewBox="0 0 27 32" fill="none" xmlns="http://www.w3.org/2000/svg">
<path d="M27 13.1227C24.3459 13.1293 21.7569 12.2709 19.5988 10.669V21.8418C19.598 23.9111 18.9881 25.9309 17.8505 27.6311C16.713 29.3312 15.102 30.6307 13.233 31.3558C11.364 32.0808 9.32609 32.1969 7.39176 31.6885C5.45742 31.1801 3.71887 30.0714 2.40857 28.5107C1.09826 26.95 0.278665 25.0116 0.0593643 22.9548C-0.159936 20.898 0.231513 18.8208 1.18137 17.001C2.13123 15.1811 3.59422 13.7053 5.37472 12.771C7.15522 11.8366 9.16836 11.4882 11.145 11.7724V17.3919C10.2405 17.0969 9.2692 17.1058 8.36987 17.4173C7.47053 17.7288 6.68912 18.3271 6.13723 19.1266C5.58533 19.9262 5.29117 20.8861 5.29676 21.8694C5.30234 22.8526 5.60738 23.8089 6.16832 24.6016C6.72927 25.3944 7.51742 25.983 8.42023 26.2836C9.32304 26.5841 10.2943 26.5811 11.1954 26.2751C12.0965 25.969 12.8813 25.3755 13.4377 24.5793C13.9941 23.7832 14.2937 22.825 14.2937 21.8418V0H19.5988C19.5951 0.46458 19.6326 0.928527 19.7109 1.38598C19.8952 2.40716 20.2785 3.37861 20.8374 4.24091C21.3962 5.10321 22.1187 5.83822 22.9609 6.401C24.159 7.22251 25.5637 7.66038 27 7.66006V13.1227Z" fill="white"/>
</svg>
