<svg width="60" height="60" viewBox="0 0 60 60" fill="none" xmlns="http://www.w3.org/2000/svg">
<rect width="60" height="60" rx="30" fill="#25272D"/>
<path d="M21.2623 32.5773C20.9856 32.847 20.6647 32.9695 20.2995 32.945C19.9343 32.9205 19.6516 32.7612 19.4514 32.467C18.4453 31.0451 17.6717 29.4943 17.1304 27.8145C16.5891 26.1347 16.319 24.3638 16.32 22.5016C16.32 21.8152 16.3577 21.141 16.4332 20.4791C16.5087 19.8172 16.6218 19.1676 16.7727 18.5302L14.9241 20.332C14.6977 20.5527 14.4336 20.663 14.1318 20.663C13.83 20.663 13.5659 20.5527 13.3395 20.332C13.1132 20.1114 13 19.854 13 19.5598C13 19.2656 13.1132 19.0082 13.3395 18.7876L16.7727 15.4413C16.9237 15.2942 17.0871 15.1839 17.2632 15.1103C17.4393 15.0368 17.6279 15 17.8291 15C18.0303 15 18.219 15.0368 18.395 15.1103C18.5711 15.1839 18.7346 15.2942 18.8855 15.4413L22.3187 18.7876C22.5451 19.0082 22.6582 19.2656 22.6582 19.5598C22.6582 19.854 22.5451 20.1114 22.3187 20.332C22.0923 20.5527 21.8282 20.663 21.5264 20.663C21.2246 20.663 20.9605 20.5527 20.7341 20.332L19.0741 18.714C18.9232 19.3269 18.8035 19.952 18.715 20.5894C18.6264 21.2268 18.5827 21.8642 18.5837 22.5016C18.5837 24.1196 18.8286 25.664 19.3186 27.1349C19.8086 28.6059 20.4942 29.9664 21.3755 31.2167C21.5264 31.4128 21.5893 31.6457 21.5641 31.9154C21.539 32.185 21.4384 32.4057 21.2623 32.5773ZM34.0519 44.8226L26.2046 41.6601C25.8525 41.513 25.5824 41.2497 25.3942 40.8702C25.2061 40.4907 25.1493 40.1166 25.2237 39.7479C25.274 39.4538 25.4189 39.2022 25.6583 38.9934C25.8978 38.7845 26.2056 38.6438 26.5819 38.5712L31.5242 37.6151L24.9219 23.1635C24.6704 22.5997 24.6518 22.0358 24.866 21.472C25.0803 20.9081 25.4762 20.5036 26.0537 20.2585C26.6322 20.0133 27.2107 19.9952 27.7892 20.2041C28.3677 20.4129 28.7827 20.7988 29.0342 21.3617L32.7315 29.4516L33.9765 28.9C34.1777 28.8265 34.4041 28.7593 34.6556 28.6985C34.9071 28.6377 35.1335 28.6191 35.3347 28.6426L42.2388 28.9368C42.8927 28.9858 43.4712 29.2065 43.9743 29.5987C44.4773 29.991 44.8168 30.4813 44.9929 31.0696L46.8793 37.4313C47.0805 38.1422 47.0302 38.8286 46.7284 39.4905C46.4265 40.1524 45.9235 40.6305 45.2193 40.9247L36.6929 44.6387C36.2653 44.8348 35.8125 44.9515 35.3347 44.9888C34.8568 45.026 34.4292 44.9706 34.0519 44.8226Z" fill="white"/>
</svg>
